<?xml version="1.0" encoding="iso-8859-1"?>
<!-- Generator: Adobe Illustrator 16.0.0, SVG Export Plug-In . SVG Version: 6.00 Build 0)  -->
<!DOCTYPE svg PUBLIC "-//W3C//DTD SVG 1.1//EN" "http://www.w3.org/Graphics/SVG/1.1/DTD/svg11.dtd">
<svg version="1.1" id="Capa_1" xmlns="http://www.w3.org/2000/svg" xmlns:xlink="http://www.w3.org/1999/xlink" x="0px" y="0px"
	 width="70px" height="70px" viewBox="0 0 559.98 559.98" style="enable-background:new 0 0 559.98 559.98;"
	 xml:space="preserve">
<g>
	<g>
		<path d="M463.957,28.89c-15.982-10.634-40.086-9.752-58.18-7.516c-23.189,2.867-45.07,10.903-64.6,23.761
			c-30.648,20.178-51.004,51.739-59.658,86.623c-8.653-34.884-29.008-66.445-59.657-86.626
			c-19.529-12.857-41.411-20.894-64.6-23.761c-18.091-2.236-42.198-3.118-58.18,7.516c-48.186,32.057-2.112,82.99,29.155,107.188
			c12.528,9.694,25.897,17.849,39.903,24.505h108.951h8.859h108.951c14.006-6.656,27.375-14.811,39.902-24.505
			C466.068,111.88,512.143,60.944,463.957,28.89z M167.801,108.236c-11.671-7.727-22.485-16.561-31.895-26.974
			c-1.628-1.803-8.503-10.903-11.64-13.333c1.484-0.462,3.507-1.294,4.385-1.361c48.005-3.604,91.179,24.104,106.1,67.455
			C210.941,130.304,187.945,121.568,167.801,108.236z M427.133,81.262c-9.408,10.413-20.223,19.247-31.895,26.974
			c-20.143,13.336-43.143,22.072-66.949,25.787c14.92-43.352,58.094-71.06,106.1-67.455c0.879,0.067,2.904,0.899,4.385,1.361
			C435.637,70.359,428.762,79.459,427.133,81.262z"/>
		<rect x="330.48" y="402.324" width="229.5" height="137.7"/>
		<polygon points="559.98,175.883 351.355,175.883 330.48,175.883 330.48,179.819 330.48,313.583 559.98,313.583 		"/>
		<polygon points="0,313.583 229.5,313.583 229.5,179.35 229.5,175.883 211.685,175.883 0,175.883 		"/>
		<rect y="402.324" width="229.5" height="137.7"/>
	</g>
</g>
<g>
</g>
<g>
</g>
<g>
</g>
<g>
</g>
<g>
</g>
<g>
</g>
<g>
</g>
<g>
</g>
<g>
</g>
<g>
</g>
<g>
</g>
<g>
</g>
<g>
</g>
<g>
</g>
<g>
</g>
</svg>
